<svg viewBox="0 0 1024 1176.463" xmlns="http://www.w3.org/2000/svg"><path d="M506.282 741.934s0-331.545 10.996-331.505c8.518 0 19.595 427.676 19.595 427.676-15.236-1.8-30.59-70.38-30.59-96.172zm213.376-327.706C690.254 285.704 625.82 175.22 537.01 89.928l-.217-.207c-10.823-16.51-20.696-35.47-28.63-55.412l-.762-2.17c.027.65.04 1.414.04 2.182 0 18.068-8.1 34.244-20.87 45.094l-.084.07c-114.356 97.092-187.13 240.154-189.54 400.272l-.005.413c-.028 1.977-.045 4.31-.045 6.65 0 158.628 76.32 299.43 194.246 387.69l1.264.905 2.8 2q7.72 57.088 13.195 114.447h19.234c5.32-47.713 12.492-89.487 21.87-130.42l-1.476 7.656c12.662-8.813 23.758-17.916 34.092-27.81l-.102.098c89.635-83.103 145.552-201.488 145.552-332.933 0-1.944-.012-3.886-.037-5.824l.003.294c-.093-31.405-2.956-62.077-8.355-91.866l.478 3.172z"/></svg>