<svg xmlns="http://www.w3.org/2000/svg" xmlns:xlink="http://www.w3.org/1999/xlink" aria-hidden="true" focusable="false" role="img" class="iconify iconify--whh" width="1.01em" height="1em" preserveAspectRatio="xMidYMid meet" viewBox="0 0 1025 1024" style="transform: rotate(360deg);"><path d="M256.06 224q0-13 9.5-22.5t22.5-9.5t22.5 9.5t9.5 22.5t-9.5 22.5t-22.5 9.5t-22.5-9.5t-9.5-22.5zm768 800q-5-2-14.5-5.5t-36-15.5t-51.5-25.5t-55.5-36t-53.5-47.5q-20-14-59-56q21-14 64.5-23.5t76.5-12.5l33-2q0-16-28.5-33.5t-66.5-32t-82.5-40.5t-69.5-55q-19-22-35-48.5t-37-69t-24-48.5q-20-31-57.5-84t-47.5-69q-31-48-108.5-120t-115.5-72q-25 0-46 10q-102-74-114-74q-13 0-22.5 9.5T64.06 96q0 8 31 56t66 96q2 17 5 34t5.5 29t9 28.5t9.5 24t12.5 24.5t11.5 20.5t13 21.5t12 19q-9-1-15-1q-14 0-23 44.5t-9 115.5q0 16 26 62q31 54 37 18q1-6 1-16q0-82 50-94q59 117 101 191t83 125q-83-64-177-211q-9 34-24.5 59.5t-32.5 25.5q-30 0-61-35t-49-79.5t-18-77.5q0-31 8-74.5t21-74.5q-24-34-37.5-67.5t-19.5-89.5q-5-9-14-26q-86-157-86-180q0-26 19-45t45-19q21 0 78 22t89 44q14-2 25-2q48 0 132.5 69t123.5 123q1 1 23 31.5t27.5 38.5t24.5 35t27 41t21.5 36t22 40t14.5 34q18 44 61 82t91 64t94 51.5t76 56.5t30 66q-14 1-36.5 3t-70 11.5t-68.5 23.5q20 25 64.5 59.5t77.5 59.5t33 35z" ></path></svg>
