<svg viewBox="0 0 32 32" version="1.1" xmlns="http://www.w3.org/2000/svg">
<title>sqlite</title>
<path d="M4.884 2.334c-1.265 0.005-2.289 1.029-2.293 2.294v20.754c0.004 1.264 1.028 2.288 2.293 2.292h11.769c-0.056-0.671-0.088-1.452-0.088-2.241 0-0.401 0.008-0.801 0.025-1.198l-0.002 0.057c-0.008-0.077-0.014-0.176-0.020-0.25q-0.229-1.498-0.591-2.972c-0.119-0.504-0.277-0.944-0.478-1.36l0.017 0.039c-0.080-0.126-0.127-0.279-0.127-0.443 0-0.034 0.002-0.068 0.006-0.101l-0 0.004c0.003-0.173 0.020-0.339 0.049-0.501l-0.003 0.019c0.088-0.523 0.19-0.963 0.314-1.394l-0.022 0.088 0.271-0.035c-0.021-0.044-0.018-0.081-0.039-0.121l-0.051-0.476q0.224-0.751 0.477-1.492l0.25-0.024c-0.010-0.020-0.012-0.047-0.023-0.066l-0.054-0.395c1.006-4.731 3.107-8.864 6.029-12.272l-0.031 0.037c0.082-0.086 0.166-0.16 0.247-0.242zM28.094 1.655c-1.29-1.15-2.849-0.687-4.39 0.68q-0.356 0.319-0.684 0.669c-2.8 3.294-4.843 7.319-5.808 11.747l-0.033 0.18c0.261 0.551 0.494 1.201 0.664 1.876l0.016 0.075q0.115 0.436 0.205 0.878s-0.024-0.089-0.12-0.37l-0.062-0.182q-0.019-0.050-0.041-0.1c-0.172-0.4-0.647-1.243-0.857-1.611-0.179 0.529-0.337 1.022-0.47 1.47 0.413 0.863 0.749 1.867 0.959 2.917l0.014 0.083s-0.031-0.124-0.184-0.552c-0.342-0.739-0.664-1.338-1.015-1.919l0.050 0.089c-0.185 0.464-0.292 1.001-0.292 1.564 0 0.1 0.003 0.199 0.010 0.297l-0.001-0.013c0.219 0.426 0.401 0.921 0.519 1.439l0.008 0.043c0.357 1.375 0.606 3.049 0.606 3.049l0.021 0.28c-0.015 0.342-0.023 0.744-0.023 1.147 0 0.805 0.034 1.602 0.101 2.39l-0.007-0.103c0.058 1.206 0.283 2.339 0.651 3.406l-0.026-0.086 0.194-0.105c-0.346-1.193-0.545-2.564-0.545-3.981 0-0.344 0.012-0.684 0.035-1.022l-0.003 0.046c0.221-3.782 0.964-7.319 2.158-10.641l-0.083 0.264c1.655-4.9 4.359-9.073 7.861-12.417l0.012-0.011c-2.491 2.249-5.863 9.535-6.873 12.232-0.963 2.42-1.798 5.294-2.365 8.263l-0.048 0.305c0.664-1.639 1.914-2.926 3.483-3.622l0.042-0.017s1.321-1.63 2.864-3.956c-1.195 0.25-2.184 0.521-3.15 0.843l0.199-0.057c-0.75 0.314-0.952 0.421-0.952 0.421 1.288-0.791 2.777-1.515 4.337-2.092l0.178-0.058c2.867-4.515 5.991-10.929 2.845-13.736z"></path>
</svg>
