<svg width="30" height="30" viewBox="0 0 30 30" fill="none" xmlns="http://www.w3.org/2000/svg">
<g clip-path="url(#clip0_15_52)">
<ellipse cx="15" cy="16" rx="13" ry="14" fill="white"/>
<path d="M30 15.0912C30 22.6229 24.5075 28.8669 17.3375 30V19.4827H20.8237L21.4875 15.1314H17.3375V12.3081C17.3375 11.1172 17.9175 9.95766 19.775 9.95766H21.6613V6.25278C21.6613 6.25278 19.9487 5.9585 18.3125 5.9585C14.895 5.9585 12.6625 8.04234 12.6625 11.8139V15.1302H8.86375V19.4815H12.6625V29.9987C5.49375 28.8644 0 22.6217 0 15.0912C0 6.75708 6.71625 0 15 0C23.2837 0 30 6.75582 30 15.0912Z" fill="#0866FF"/>
</g>
<defs>
<clipPath id="clip0_15_52">
<rect width="30" height="30" rx="15" fill="white"/>
</clipPath>
</defs>
</svg>
