<svg width="30" height="30" viewBox="0 0 30 30" fill="none" xmlns="http://www.w3.org/2000/svg">
<g clip-path="url(#clip0_2_71)">
<rect x="3" y="5" width="19" height="19" fill="white"/>
<path d="M21.6138 23.8412H17.855V17.955C17.855 16.5513 17.83 14.745 15.9 14.745C13.9425 14.745 13.6425 16.2738 13.6425 17.8538V23.8412H9.885V11.7362H13.4937V13.39H13.5437C14.28 12.1325 15.6475 11.3813 17.1038 11.435C20.9137 11.435 21.615 13.9413 21.615 17.2L21.6138 23.8412ZM5.64375 10.0812C4.43875 10.0812 3.4625 9.105 3.4625 7.9C3.4625 6.695 4.43875 5.71875 5.64375 5.71875C6.84875 5.71875 7.825 6.695 7.825 7.9C7.825 9.105 6.84875 10.0812 5.64375 10.0812ZM7.5225 23.8412H3.76V11.7362H7.5225V23.8412ZM23.4875 2.22875H1.87125C0.85 2.2175 0.0125 3.03625 0 4.0575V25.7625C0.0125 26.785 0.85 27.6037 1.87125 27.5925H23.4875C24.5113 27.605 25.3525 26.7862 25.3662 25.7625V4.05625C25.3512 3.0325 24.51 2.21375 23.4875 2.2275" fill="#0A66C2"/>
</g>
<defs>
<clipPath id="clip0_2_71">
<rect width="30" height="30" fill="white"/>
</clipPath>
</defs>
</svg>
