<?xml version="1.0" encoding="UTF-8"?>
<svg xmlns="http://www.w3.org/2000/svg" id="Layer_1" data-name="Layer 1" viewBox="0 0 24 24">
  <path d="m9.914,13.747l-.363-4.247h1.042l.249,3.183,1.209-2.327,1.209,2.327.247-3.183h1.044l-.363,4.247c-.031.44-.337.779-.706.779-.244,0-.471-.151-.601-.4l-.831-1.6-.831,1.6c-.129.249-.356.4-.601.4-.368,0-.675-.339-.706-.779Zm6.654.779c.244,0,.471-.151.601-.4l.831-1.6.831,1.6c.129.249.356.4.601.4.368,0,.675-.339.706-.779l.363-4.247h-1.044l-.247,3.183-1.209-2.327-1.209,2.327-.249-3.183h-1.042l.363,4.247c.031.44.337.779.706.779Zm-12.706-.779c.031.44.337.779.706.779.244,0,.471-.151.601-.4l.831-1.6.831,1.6c.129.249.356.4.601.4.368,0,.675-.339.706-.779l.363-4.247h-1.044l-.247,3.183-1.209-2.327-1.209,2.327-.249-3.183h-1.042l.363,4.247Zm20.137-1.747c0,6.617-5.383,12-12,12S0,18.617,0,12,5.383,0,12,0s12,5.383,12,12ZM13.238,1.074c1.015,1.143,2.659,3.254,3.73,5.926h4.817c-1.645-3.207-4.813-5.505-8.548-5.926Zm-1.238.135c-.768.803-2.667,2.96-3.889,5.79h7.779c-1.223-2.835-3.121-4.988-3.889-5.79ZM2.214,7h4.817c1.071-2.671,2.715-4.783,3.73-5.926-3.735.421-6.902,2.719-8.548,5.926Zm-1.214,5c0,1.412.277,2.758.764,4h20.472c.487-1.242.764-2.588.764-4s-.277-2.758-.764-4H1.764c-.487,1.242-.764,2.588-.764,4Zm7.111,5c1.223,2.835,3.121,4.988,3.889,5.79.768-.803,2.667-2.96,3.889-5.79h-7.779Zm2.651,5.926c-1.015-1.143-2.659-3.254-3.73-5.926H2.214c1.645,3.207,4.813,5.505,8.548,5.926Zm11.024-5.926h-4.817c-1.071,2.671-2.715,4.783-3.73,5.926,3.735-.421,6.902-2.719,8.548-5.926Z"/>
</svg>
